<?xml version="1.0" encoding="utf-8"?>
<!-- Generator: Adobe Illustrator 24.0.1, SVG Export Plug-In . SVG Version: 6.00 Build 0)  -->
<svg version="1.1" id="Layer_1" xmlns="http://www.w3.org/2000/svg" xmlns:xlink="http://www.w3.org/1999/xlink" x="0px" y="0px"
	 viewBox="0 0 345.8 56.9" style="enable-background:new 0 0 345.8 56.9;" xml:space="preserve">
<style type="text/css">
	.st0{fill:#FFFFFF;}
</style>
<g>
	<path class="st0" d="M46.2,16.5c-2.1,1.9-4.2,3.8-6.1,5.5c-1.5-1-2.7-2-4.2-2.8c-3.8-1.8-9.8-1.3-12.9,2.8
		c-2.9,3.9-3,12.1,3.1,15.3c2.8,1.5,5.7,1.5,8.7,0.7c1.9-0.5,1.9-0.5,1.9-2.5c0-2.3,0-4.7,0-7c0-0.3,0-0.6,0-0.9c3,0,5.8,0,8.7,0
		c0,0.2,0,0.5,0,0.7c0,4.4,0,8.8,0,13.2c0,0.5-0.2,0.8-0.6,1c-3.4,2.2-7.1,3.4-11.1,3.9c-3.5,0.4-7.1,0.3-10.5-0.9
		c-6.7-2.4-10.9-7.1-12-14.3S12.8,17,19.1,13c3.6-2.3,7.6-3.2,11.8-3.2c3.7,0,7.3,0.7,10.6,2.6C43.4,13.7,44.9,15,46.2,16.5z"/>
	<path class="st0" d="M188.8,35.8c0.2,0.1,0.3,0.2,0.5,0.3c4.1,2.4,8.5,3.5,13.2,3c0.8-0.1,1.7-0.3,2.4-0.7c1.8-1,1.8-3.2,0-4.1
		c-1.3-0.6-2.6-1-4-1.4c-2.6-0.7-5.2-1.3-7.7-2c-1.6-0.5-3-1.3-4.3-2.4c-1.6-1.5-2.6-3.3-2.8-5.5c-0.4-4.6,1.4-8,5.3-10.4
		c2.4-1.5,5.1-2.1,7.8-2.3c4-0.3,8,0.1,11.8,1.4c1.2,0.4,2.3,1,3.6,1.5c-1.1,2.5-2.1,5-3,7.3c-2-0.7-3.9-1.5-5.9-2
		c-2.3-0.6-4.8-0.8-7.1-0.1c-0.7,0.2-1.4,0.6-1.9,1.1c-1.2,1.2-0.9,3,0.6,3.6s3,1,4.6,1.5c2.4,0.7,4.9,1.3,7.4,2
		c1,0.3,1.9,0.8,2.7,1.3c6.2,3.8,5.1,12.8-0.8,16.4c-2.2,1.3-4.5,2.1-7,2.4c-5.1,0.6-10.1,0.1-15-1.7c-1.1-0.4-2.2-1.1-3.3-1.6
		c-0.3-0.2-0.4-0.3-0.2-0.7c1-2.2,2-4.4,3-6.6C188.7,35.9,188.7,35.8,188.8,35.8z"/>
	<path class="st0" d="M328.5,22.4c-5.2-6-12.7-4.4-15.6-1.3c-3.7,3.9-3.6,11.1,0.1,14.9c3.2,3.2,10.6,4.4,15.5-1.4
		c2.1,1.9,4.1,3.7,6.3,5.7c-1.2,1.5-2.7,2.8-4.3,3.8c-3.3,2-6.8,2.8-10.6,2.8c-4.2,0-8.2-0.8-11.7-3.2c-4.7-3.1-7.3-7.5-7.9-13.1
		c-0.4-3.9,0.2-7.6,2.1-11c2.5-4.4,6.2-7.3,11.1-8.6c5.8-1.6,11.4-1.2,16.7,1.8c1.8,1,3.3,2.4,4.7,4
		C332.7,18.6,330.6,20.5,328.5,22.4z"/>
	<path class="st0" d="M92.1,46.1c-0.3,0-0.5,0-0.7,0c-3,0-5.9,0-8.9,0c-0.5,0-0.8-0.2-1-0.7c-3.2-8-6.4-15.9-9.6-23.9
		c-0.1-0.3-0.2-0.6-0.4-1.1c-0.2,0.4-0.3,0.6-0.4,0.8c-3.2,8-6.4,16-9.6,24c-0.2,0.6-0.6,0.8-1.2,0.8c-2.8,0-5.5,0-8.3,0
		c-0.3,0-0.6,0-1,0c0.4-0.8,0.7-1.5,1-2.2c4.7-10.8,9.5-21.5,14.2-32.3c0.3-0.6,0.6-0.9,1.3-0.9c2.8,0,5.5,0,8.3,0
		c0.5,0,0.7,0.1,0.9,0.6c5,11.4,10.1,22.7,15.1,34.1C92,45.6,92,45.8,92.1,46.1z"/>
	<path class="st0" d="M224.2,46.1c0-5.7,0-11.3,0-17c0.3,0,0.6,0,0.9,0c4.7,0,9.3,0,14,0c1,0,2.1-0.1,3.1-0.3
		c2.8-0.6,4.2-3.1,3.7-5.9c-0.5-2.4-1.9-3.8-4.4-4.1c-0.7-0.1-1.5-0.1-2.2-0.1c-4.7,0-9.5,0-14.2,0c-0.3,0-0.6,0-0.9,0
		c0-2.6,0-5.1,0-7.7c0.2,0,0.5-0.1,0.7-0.1c5.7,0,11.5-0.1,17.2,0.1c4,0.1,7.6,1.3,10.5,4.2c2.2,2.1,3.2,4.8,3.4,7.8
		c0.2,2.6-0.2,5-1.5,7.3c-2,3.4-5,5.3-8.7,6.1c-1.6,0.3-3.2,0.5-4.8,0.6c-2,0.1-3.9,0-5.9,0c-0.9,0-0.9,0-0.9,0.9c0,2.5,0,5,0,7.5
		c0,0.7-0.2,0.8-0.8,0.8c-2.8,0-5.5,0-8.3,0C224.8,46.1,224.6,46.1,224.2,46.1z"/>
	<path class="st0" d="M98.8,10.8c0.3,0,0.5,0,0.8,0c2.2,0,4.4,0,6.7,0c0.5,0,0.8,0.2,1.1,0.6c3.9,6.4,7.7,12.7,11.6,19.1
		c0.1,0.2,0.3,0.4,0.5,0.8c0.2-0.3,0.4-0.6,0.5-0.9c3.7-6.3,7.5-12.6,11.2-18.9c0.3-0.5,0.6-0.7,1.2-0.7c2.1,0,4.2,0,6.3,0
		c0.2,0,0.5,0,0.8,0c-0.2,0.3-0.3,0.5-0.4,0.8c-5.4,10.3-11.1,20.5-17.2,30.5c-0.3,0.5-0.6,0.7-1.1,0.6c-1,0-2,0-3,0
		c-0.5,0-0.7-0.2-1-0.5c-5.3-8.6-10.6-17.2-15.2-26.2c-0.8-1.5-1.6-2.9-2.3-4.4C99,11.3,98.9,11.1,98.8,10.8z"/>
	<path class="st0" d="M178.4,10.9c0,2.5,0,5,0,7.6c-9.3,0-18.6,0-27.9,0c0-2.5,0-5,0-7.6C159.8,10.9,169.1,10.9,178.4,10.9z"/>
	<path class="st0" d="M292.5,10.8c0,2.6,0,5.1,0,7.6c-9.3,0-18.6,0-27.9,0c0-0.1-0.1-0.2-0.1-0.3c0-2.2,0-4.5,0-6.7
		c0-0.6,0.3-0.6,0.7-0.6c2.5,0,5,0,7.5,0c6.3,0,12.5,0,18.8,0C291.8,10.8,292.1,10.8,292.5,10.8z"/>
	<path class="st0" d="M178.4,38.5c0,2.5,0,5,0,7.6c-9.3,0-18.6,0-27.9,0c0-2.5,0-5,0-7.6C159.8,38.5,169,38.5,178.4,38.5z"/>
	<path class="st0" d="M292.5,38.5c0,1.8,0,3.5,0,5.3c0,0.6,0,1.2,0,1.8c0,0.4-0.2,0.6-0.6,0.6c-0.1,0-0.2,0-0.4,0
		c-8.7,0-17.4,0-26.1,0c-1,0-1,0-1-1c0-2.2,0-4.4,0-6.6C273.9,38.5,283.1,38.5,292.5,38.5z"/>
	<path class="st0" d="M150.5,31.9c0-2.5,0-4.9,0-7.3c9.3,0,18.6,0,27.9,0c0,2.5,0,4.9,0,7.3C169.1,31.9,159.8,31.9,150.5,31.9z"/>
	<path class="st0" d="M264.6,31.9c0-2.5,0-4.9,0-7.3c0.3,0,0.6,0,0.9,0c8.7,0,17.5,0,26.2,0c0.7,0,0.9,0.2,0.9,0.9
		c-0.1,2.1,0,4.3,0,6.5C283.2,31.9,273.9,31.9,264.6,31.9z"/>
	<path class="st0" d="M139.7,24.8c0,7.1,0,14.2,0,21.3c-0.2,0-0.4,0-0.7,0c-2.5,0-5.1,0-7.6,0c-0.6,0-0.8-0.2-0.8-0.8
		c0-1.6-0.3-3.2,0.1-4.6c0.4-1.4,1.4-2.7,2.1-4c2.1-3.8,4.2-7.5,6.3-11.3c0.1-0.2,0.3-0.4,0.4-0.6C139.6,24.8,139.6,24.8,139.7,24.8
		z"/>
	<path class="st0" d="M98.7,25.1c0.1,0.2,0.3,0.4,0.4,0.6c2.8,5,5.6,10,8.4,15c0.2,0.4,0.3,0.8,0.3,1.3c0,1.2,0,2.4,0,3.5
		c0,0.5-0.1,0.7-0.6,0.7c-2.6,0-5.3,0-7.9,0c-0.4,0-0.6-0.1-0.6-0.6c0-6.8,0-13.5,0-20.3C98.7,25.2,98.7,25.2,98.7,25.1z"/>
</g>
</svg>
